<?xml version="1.0" encoding="UTF-8"?><svg id="Page_1" data-backgroundcolor="#F0F0F0" xmlns="http://www.w3.org/2000/svg" xmlns:xlink="http://www.w3.org/1999/xlink" viewBox="0 0 158.96 124.61"><defs><style>.cls-1{fill:#fff;}.cls-2{fill:#121212;}.cls-3{fill:url(#New_Gradient_Swatch_1);}</style><linearGradient id="New_Gradient_Swatch_1" x1="131.26" y1="48.32" x2="26.89" y2="76.5" gradientUnits="userSpaceOnUse"><stop offset="0" stop-color="#a0752b"/><stop offset=".13" stop-color="#c8993b"/><stop offset=".24" stop-color="#e7a248"/><stop offset=".31" stop-color="#fdd551"/><stop offset=".42" stop-color="#ffffbf"/><stop offset=".58" stop-color="#fdd551"/><stop offset=".84" stop-color="#a0752b"/><stop offset=".97" stop-color="#fdd551"/><stop offset="1" stop-color="#fdd551"/></linearGradient></defs><circle class="cls-3" cx="79.48" cy="62.3" r="52.11"/><rect class="cls-2" x="45.77" y="74.33" width="67.43" height="28.09" rx="14.04" ry="14.04"/><path class="cls-1" d="m68.16,86.45c-.17-.31-.41-.55-.73-.71-.32-.17-.69-.25-1.12-.25-.74,0-1.33.24-1.78.73-.45.49-.67,1.13-.67,1.94,0,.86.23,1.54.7,2.02.47.48,1.11.73,1.93.73.56,0,1.04-.14,1.42-.43.39-.28.67-.69.85-1.23h-2.9v-1.68h4.97v2.12c-.17.57-.46,1.1-.86,1.59-.41.49-.92.89-1.54,1.19-.62.3-1.33.45-2.11.45-.93,0-1.75-.2-2.48-.61-.73-.41-1.29-.97-1.7-1.69-.41-.72-.61-1.54-.61-2.47s.2-1.75.61-2.48.97-1.29,1.69-1.7c.72-.41,1.54-.61,2.47-.61,1.12,0,2.07.27,2.84.81.77.54,1.28,1.29,1.53,2.26h-2.52Z"/><path class="cls-1" d="m74.12,92.33c-.73-.41-1.32-.98-1.75-1.72s-.65-1.56-.65-2.48.22-1.74.65-2.47c.43-.73,1.01-1.3,1.75-1.71.73-.41,1.54-.61,2.42-.61s1.69.21,2.42.61c.73.41,1.31.98,1.74,1.71.42.73.63,1.55.63,2.47s-.21,1.74-.64,2.48c-.43.73-1.01,1.31-1.74,1.72-.73.41-1.54.61-2.42.61s-1.69-.2-2.42-.61Zm4.22-2.22c.45-.5.67-1.16.67-1.98s-.22-1.49-.67-1.98c-.45-.49-1.05-.74-1.8-.74s-1.36.24-1.81.73c-.45.49-.67,1.15-.67,1.99s.22,1.49.67,1.98,1.05.74,1.81.74,1.35-.25,1.8-.75Z"/><path class="cls-1" d="m84.89,91.09h2.99v1.76h-5.27v-9.37h2.28v7.61Z"/><path class="cls-1" d="m95.07,84.07c.74.39,1.31.94,1.72,1.65.4.71.61,1.52.61,2.45s-.2,1.73-.61,2.44c-.41.71-.98,1.26-1.72,1.66s-1.6.59-2.58.59h-3.51v-9.37h3.51c.99,0,1.85.2,2.59.59Zm-.72,6.1c.48-.47.72-1.14.72-2s-.24-1.54-.72-2.02-1.15-.72-2.02-.72h-1.08v5.45h1.08c.86,0,1.54-.24,2.02-.71Z"/></svg>