<?xml version="1.0" encoding="UTF-8"?><svg data-backgroundcolor="#F0F0F0" xmlns="http://www.w3.org/2000/svg" xmlns:xlink="http://www.w3.org/1999/xlink" viewBox="0 0 158.96 124.61"><defs><style>.cls-1{fill:#fff;}.cls-2{isolation:isolate;}.cls-3{fill:#121212;}.cls-4{fill:url(#New_Gradient_Swatch_1);}.cls-5{fill:#1e2121;mix-blend-mode:color;}</style><linearGradient id="New_Gradient_Swatch_1" x1="9.42" y1="30" x2="153.64" y2="96.5" gradientUnits="userSpaceOnUse"><stop offset="0" stop-color="#a0752b"/><stop offset=".13" stop-color="#c8993b"/><stop offset=".24" stop-color="#e7a248"/><stop offset=".31" stop-color="#fdd551"/><stop offset=".42" stop-color="#ffffbf"/><stop offset=".58" stop-color="#fdd551"/><stop offset=".84" stop-color="#a0752b"/><stop offset=".97" stop-color="#fdd551"/><stop offset="1" stop-color="#fdd551"/></linearGradient></defs><g class="cls-2"><g id="Page_1"><circle class="cls-4" cx="79.48" cy="62.3" r="52.11"/><circle class="cls-5" cx="79.48" cy="62.3" r="52.11"/><rect class="cls-3" x="45.77" y="74.33" width="67.43" height="28.09" rx="14.04" ry="14.04"/><path class="cls-1" d="m59.76,92.61c-.54-.22-.98-.55-1.3-.99-.33-.44-.5-.96-.51-1.58h2.43c.04.35.16.61.36.79.2.18.47.27.8.27s.61-.08.8-.23c.2-.16.29-.37.29-.65,0-.23-.08-.42-.23-.57-.16-.15-.35-.28-.57-.37-.23-.1-.55-.21-.97-.33-.61-.19-1.1-.37-1.48-.56-.38-.19-.71-.46-.99-.83-.28-.37-.41-.84-.41-1.43,0-.87.32-1.56.95-2.05s1.46-.74,2.47-.74,1.86.25,2.5.74.97,1.18,1.01,2.06h-2.47c-.02-.3-.13-.54-.33-.71s-.47-.26-.79-.26c-.28,0-.5.07-.67.22s-.25.36-.25.63c0,.3.14.54.43.71.28.17.73.35,1.33.55.61.2,1.1.4,1.48.59.38.19.71.46.98.81.28.36.41.81.41,1.38s-.14,1.02-.41,1.46c-.27.44-.67.78-1.18,1.04-.52.26-1.13.39-1.83.39s-1.3-.11-1.84-.33Z"/><path class="cls-1" d="m68.71,83.48v9.37h-2.28v-9.37h2.28Z"/><path class="cls-1" d="m72.64,91.09h2.99v1.76h-5.27v-9.37h2.28v7.61Z"/><path class="cls-1" d="m85.53,83.48l-3.32,9.37h-2.86l-3.32-9.37h2.43l2.32,7.08,2.34-7.08h2.42Z"/><path class="cls-1" d="m88.76,85.31v1.9h3.06v1.76h-3.06v2.06h3.46v1.83h-5.74v-9.37h5.74v1.83h-3.46Z"/><path class="cls-1" d="m98.48,92.85l-1.95-3.54h-.55v3.54h-2.28v-9.37h3.83c.74,0,1.37.13,1.89.39.52.26.91.61,1.17,1.06.26.45.39.95.39,1.5,0,.62-.18,1.18-.53,1.67-.35.49-.87.84-1.56,1.04l2.16,3.71h-2.58Zm-2.5-5.15h1.42c.42,0,.73-.1.94-.31.21-.21.31-.49.31-.87s-.1-.64-.31-.84c-.21-.21-.52-.31-.94-.31h-1.42v2.32Z"/></g></g></svg>