<?xml version="1.0" encoding="UTF-8"?><svg id="Page_1" data-backgroundcolor="#F0F0F0" xmlns="http://www.w3.org/2000/svg" xmlns:xlink="http://www.w3.org/1999/xlink" viewBox="0 0 158.96 124.61"><defs><style>.cls-1{fill:#fff;}.cls-2{fill:#ff1612;}.cls-2,.cls-3,.cls-4{fill-rule:evenodd;}.cls-5{clip-path:url(#clippath);}.cls-6{fill:#173cff;}.cls-3{fill:#f4f4f4;}.cls-7{fill:none;}.cls-4{fill:#0437a0;}</style><clipPath id="clippath"><path class="cls-7" d="m131.59,62.3c0,28.78-23.33,52.11-52.11,52.11s-52.11-23.33-52.11-52.11S50.7,10.19,79.48,10.19s52.11,23.33,52.11,52.11Z"/></clipPath></defs><g class="cls-5"><path class="cls-3" d="m157.64,18.21v8.02h-77.12v-8.02h77.12Zm0,16.03v8.02h-77.12v-8.02h77.12Zm0,16.03v8.02h-77.12v-8.02h77.12Zm0,16.03v8.02H1.32v-8.02h156.33Zm0,16.04v8.02H1.32v-8.02h156.33Zm0,16.03v8.02H1.32v-8.02h156.33Z"/><path class="cls-2" d="m1.32,10.19h156.33v8.02H1.32v-8.02h0Zm0,96.2h156.33v8.02H1.32v-8.02h0Zm0-16.03h156.33v8.02H1.32v-8.02h0Zm0-16.03h156.33v8.01H1.32v-8.01h0Zm0-16.04h156.33v8.02H1.32v-8.02h0Zm0-16.03h156.33v8.02H1.32v-8.02h0Zm0-16.03h156.33v8.02H1.32v-8.02h0Z"/><polygon class="cls-4" points="1.32 10.19 80.52 10.19 80.52 66.31 1.32 66.31 1.32 10.19 1.32 10.19"/><path class="cls-3" d="m73.92,12.97l.72,2.22h2.34s-1.89,1.36-1.89,1.36l.73,2.22-1.89-1.38-1.89,1.38.73-2.22-1.89-1.37h2.34s.72-2.22.72-2.22h0ZM7.91,35.35l.72,2.22h2.33s-1.89,1.36-1.89,1.36l.73,2.22-1.89-1.38-1.89,1.38.73-2.22-1.89-1.37h2.33s.72-2.22.72-2.22h0Zm6.6,5.6l.72,2.22h2.33s-1.89,1.36-1.89,1.36l.73,2.22-1.89-1.38-1.89,1.38.73-2.22-1.89-1.37h2.33s.72-2.22.72-2.22h0Zm52.81,0l.72,2.22h2.33s-1.89,1.36-1.89,1.36l.73,2.22-1.89-1.38-1.89,1.38.73-2.22-1.89-1.37h2.33s.72-2.22.72-2.22h0Zm-13.2,0l.72,2.22h2.34s-1.89,1.36-1.89,1.36l.73,2.22-1.89-1.38-1.89,1.38.73-2.22-1.89-1.37h2.33s.72-2.22.72-2.22h0Zm-13.2,0l.72,2.22h2.33s-1.89,1.36-1.89,1.36l.73,2.22-1.89-1.38-1.89,1.38.73-2.22-1.89-1.37h2.34s.72-2.22.72-2.22h0Zm-13.2,0l.72,2.22h2.34s-1.89,1.36-1.89,1.36l.73,2.22-1.89-1.38-1.89,1.38.73-2.22-1.89-1.37h2.34s.72-2.22.72-2.22h0Zm-6.6-5.6l.72,2.22h2.34s-1.89,1.36-1.89,1.36l.72,2.22-1.89-1.38-1.89,1.38.73-2.22-1.89-1.37h2.33s.72-2.22.72-2.22h0Zm39.61,0l.72,2.22h2.33s-1.89,1.36-1.89,1.36l.73,2.22-1.89-1.38-1.89,1.38.73-2.22-1.89-1.37h2.34s.72-2.22.72-2.22h0Zm13.2,0l.72,2.22h2.34s-1.89,1.36-1.89,1.36l.73,2.22-1.89-1.38-1.89,1.38.73-2.22-1.89-1.37h2.34s.72-2.22.72-2.22h0Zm0,11.19l.72,2.22h2.34s-1.89,1.36-1.89,1.36l.73,2.22-1.89-1.38-1.89,1.38.73-2.22-1.89-1.37h2.34s.72-2.22.72-2.22h0Zm-13.2,0l.72,2.22h2.33s-1.89,1.36-1.89,1.36l.73,2.22-1.89-1.38-1.89,1.38.73-2.22-1.89-1.37h2.34s.72-2.22.72-2.22h0Zm-39.61,0l.72,2.22h2.34s-1.89,1.36-1.89,1.36l.72,2.22-1.89-1.38-1.89,1.38.73-2.22-1.89-1.37h2.33s.72-2.22.72-2.22h0Zm-6.6,5.59l.72,2.22h2.33s-1.89,1.36-1.89,1.36l.73,2.22-1.89-1.38-1.89,1.38.73-2.22-1.89-1.37h2.33s.72-2.22.72-2.22h0Zm52.81,0l.72,2.22h2.33s-1.89,1.36-1.89,1.36l.73,2.22-1.89-1.38-1.89,1.38.73-2.22-1.89-1.37h2.33s.72-2.22.72-2.22h0Zm-13.2,0l.72,2.22h2.34s-1.89,1.36-1.89,1.36l.73,2.22-1.89-1.38-1.89,1.38.73-2.22-1.89-1.37h2.33s.72-2.22.72-2.22h0Zm-13.2,0l.72,2.22h2.33s-1.89,1.36-1.89,1.36l.73,2.22-1.89-1.38-1.89,1.38.73-2.22-1.89-1.37h2.34s.72-2.22.72-2.22h0Zm-13.2,0l.72,2.22h2.34s-1.89,1.36-1.89,1.36l.73,2.22-1.89-1.38-1.89,1.38.73-2.22-1.89-1.37h2.34s.72-2.22.72-2.22h0Zm-19.8-5.59l.72,2.22h2.33s-1.89,1.36-1.89,1.36l.73,2.22-1.89-1.38-1.89,1.38.73-2.22-1.89-1.37h2.33s.72-2.22.72-2.22h0Zm0,11.19l.72,2.22h2.33s-1.89,1.36-1.89,1.36l.73,2.22-1.89-1.38-1.89,1.38.73-2.22-1.89-1.37h2.33s.72-2.22.72-2.22h0Zm13.2,0l.72,2.22h2.34s-1.89,1.36-1.89,1.36l.72,2.22-1.89-1.38-1.89,1.38.73-2.22-1.89-1.37h2.33s.72-2.22.72-2.22h0Zm39.61,0l.72,2.22h2.33s-1.89,1.36-1.89,1.36l.73,2.22-1.89-1.38-1.89,1.38.73-2.22-1.89-1.37h2.34s.72-2.22.72-2.22h0Zm13.2,0l.72,2.22h2.34s-1.89,1.36-1.89,1.36l.73,2.22-1.89-1.38-1.89,1.38.73-2.22-1.89-1.37h2.34s.72-2.22.72-2.22h0ZM14.52,29.76l.72,2.22h2.33s-1.89,1.36-1.89,1.36l.73,2.22-1.89-1.38-1.89,1.38.73-2.22-1.89-1.37h2.33s.72-2.22.72-2.22h0Zm0-11.19l.72,2.22h2.33s-1.89,1.36-1.89,1.36l.73,2.22-1.89-1.38-1.89,1.38.73-2.22-1.89-1.37h2.33s.72-2.22.72-2.22h0Zm52.81,0l.72,2.22h2.33s-1.89,1.36-1.89,1.36l.73,2.22-1.89-1.38-1.89,1.38.73-2.22-1.89-1.37h2.33s.72-2.22.72-2.22h0Zm-13.2,0l.72,2.22h2.34s-1.89,1.36-1.89,1.36l.73,2.22-1.89-1.38-1.89,1.38.73-2.22-1.89-1.37h2.33s.72-2.22.72-2.22h0Zm-13.2,0l.72,2.22h2.33s-1.89,1.36-1.89,1.36l.73,2.22-1.89-1.38-1.89,1.38.73-2.22-1.89-1.37h2.34s.72-2.22.72-2.22h0Zm-13.2,0l.72,2.22h2.34s-1.89,1.36-1.89,1.36l.73,2.22-1.89-1.38-1.89,1.38.73-2.22-1.89-1.37h2.34s.72-2.22.72-2.22h0Zm-19.8,5.6l.72,2.22h2.33s-1.89,1.36-1.89,1.36l.73,2.22-1.89-1.38-1.89,1.38.73-2.22-1.89-1.37h2.33s.72-2.22.72-2.22h0Zm59.41,5.59l.72,2.22h2.33s-1.89,1.36-1.89,1.36l.73,2.22-1.89-1.38-1.89,1.38.73-2.22-1.89-1.37h2.33s.72-2.22.72-2.22h0Zm-13.2,0l.72,2.22h2.34s-1.89,1.36-1.89,1.36l.73,2.22-1.89-1.38-1.89,1.38.73-2.22-1.89-1.37h2.33s.72-2.22.72-2.22h0Zm-13.2,0l.72,2.22h2.33s-1.89,1.36-1.89,1.36l.73,2.22-1.89-1.38-1.89,1.38.73-2.22-1.89-1.37h2.34s.72-2.22.72-2.22h0Zm-13.2,0l.72,2.22h2.34s-1.89,1.36-1.89,1.36l.73,2.22-1.89-1.38-1.89,1.38.73-2.22-1.89-1.37h2.34s.72-2.22.72-2.22h0Zm-6.6-5.59l.72,2.22h2.34s-1.89,1.36-1.89,1.36l.72,2.22-1.89-1.38-1.89,1.38.73-2.22-1.89-1.37h2.33s.72-2.22.72-2.22h0Zm0-11.19l.72,2.22h2.34s-1.89,1.36-1.89,1.36l.72,2.22-1.89-1.38-1.89,1.38.73-2.22-1.89-1.37h2.33s.72-2.22.72-2.22h0Zm-13.2,0l.72,2.22h2.33s-1.89,1.36-1.89,1.36l.73,2.22-1.89-1.38-1.89,1.38.73-2.22-1.89-1.37h2.33s.72-2.22.72-2.22h0Zm26.4,44.75l.72,2.22h2.33s-1.89,1.36-1.89,1.36l.73,2.22-1.89-1.38-1.89,1.38.73-2.22-1.89-1.37h2.34s.72-2.22.72-2.22h0Zm0-11.19l.72,2.22h2.33s-1.89,1.36-1.89,1.36l.73,2.22-1.89-1.38-1.89,1.38.73-2.22-1.89-1.37h2.34s.72-2.22.72-2.22h0Zm0-11.19l.72,2.22h2.33s-1.89,1.36-1.89,1.36l.73,2.22-1.89-1.38-1.89,1.38.73-2.22-1.89-1.37h2.34s.72-2.22.72-2.22h0Zm0-11.19l.72,2.22h2.33s-1.89,1.36-1.89,1.36l.73,2.22-1.89-1.38-1.89,1.38.73-2.22-1.89-1.37h2.34s.72-2.22.72-2.22h0Zm0-11.19l.72,2.22h2.33s-1.89,1.36-1.89,1.36l.73,2.22-1.89-1.38-1.89,1.38.73-2.22-1.89-1.37h2.34s.72-2.22.72-2.22h0Zm13.2,44.75l.72,2.22h2.34s-1.89,1.36-1.89,1.36l.73,2.22-1.89-1.38-1.89,1.38.73-2.22-1.89-1.37h2.34s.72-2.22.72-2.22h0Zm0-11.19l.72,2.22h2.34s-1.89,1.36-1.89,1.36l.73,2.22-1.89-1.38-1.89,1.38.73-2.22-1.89-1.37h2.34s.72-2.22.72-2.22h0Zm0-11.19l.72,2.22h2.34s-1.89,1.36-1.89,1.36l.73,2.22-1.89-1.38-1.89,1.38.73-2.22-1.89-1.37h2.34s.72-2.22.72-2.22h0Zm0-11.19l.72,2.22h2.34s-1.89,1.36-1.89,1.36l.73,2.22-1.89-1.38-1.89,1.38.73-2.22-1.89-1.37h2.34s.72-2.22.72-2.22h0Zm0-11.19l.72,2.22h2.34s-1.89,1.36-1.89,1.36l.73,2.22-1.89-1.38-1.89,1.38.73-2.22-1.89-1.37h2.34s.72-2.22.72-2.22h0Zm13.2,11.19l.72,2.22h2.33s-1.89,1.36-1.89,1.36l.73,2.22-1.89-1.38-1.89,1.38.73-2.22-1.89-1.37h2.34s.72-2.22.72-2.22h0Zm0-11.19l.72,2.22h2.33s-1.89,1.36-1.89,1.36l.73,2.22-1.89-1.38-1.89,1.38.73-2.22-1.89-1.37h2.34s.72-2.22.72-2.22h0Zm13.2,11.19l.72,2.22h2.34s-1.89,1.36-1.89,1.36l.73,2.22-1.89-1.38-1.89,1.38.73-2.22-1.89-1.37h2.34s.72-2.22.72-2.22h0Z"/></g><rect class="cls-6" x="45.77" y="74.33" width="67.43" height="28.09" rx="14.04" ry="14.04"/><path class="cls-1" d="m73.9,85.1h-4.17v1.84c.18-.2.43-.36.75-.48.32-.12.67-.19,1.04-.19.67,0,1.22.15,1.66.45.44.3.76.69.97,1.17.21.48.31,1,.31,1.56,0,1.04-.29,1.87-.88,2.48-.59.61-1.42.91-2.48.91-.71,0-1.33-.12-1.86-.37-.53-.24-.93-.58-1.21-1.02-.29-.44-.44-.94-.47-1.51h2.23c.05.28.18.51.39.69.21.18.49.27.84.27.42,0,.73-.13.93-.4.21-.27.31-.62.31-1.07s-.11-.77-.32-1-.53-.35-.93-.35c-.3,0-.55.07-.75.22-.2.15-.33.34-.39.58h-2.2v-5.81h6.24v2Z"/><path class="cls-1" d="m76.6,84.23c.59-.88,1.55-1.32,2.86-1.32s2.27.44,2.86,1.32c.59.88.89,2.09.89,3.62s-.3,2.76-.89,3.65c-.59.88-1.55,1.32-2.86,1.32s-2.27-.44-2.86-1.32-.89-2.1-.89-3.65.3-2.74.89-3.62Zm4.08,1.54c-.2-.48-.6-.73-1.21-.73s-1.02.24-1.21.73c-.2.49-.29,1.18-.29,2.08,0,.61.04,1.11.11,1.5.07.4.22.72.43.96.22.25.54.37.97.37s.75-.12.97-.37c.22-.24.36-.56.43-.96.07-.4.11-.9.11-1.5,0-.9-.1-1.59-.29-2.08Z"/><path class="cls-1" d="m85.31,84.23c.59-.88,1.55-1.32,2.86-1.32s2.27.44,2.86,1.32c.59.88.89,2.09.89,3.62s-.3,2.76-.89,3.65c-.59.88-1.55,1.32-2.86,1.32s-2.27-.44-2.86-1.32-.89-2.1-.89-3.65.3-2.74.89-3.62Zm4.08,1.54c-.2-.48-.6-.73-1.21-.73s-1.02.24-1.21.73c-.2.49-.29,1.18-.29,2.08,0,.61.04,1.11.11,1.5.07.4.22.72.43.96.22.25.54.37.97.37s.75-.12.97-.37c.22-.24.36-.56.43-.96.07-.4.11-.9.11-1.5,0-.9-.1-1.59-.29-2.08Z"/></svg>