<?xml version="1.0" encoding="UTF-8"?><svg id="Page_1" data-backgroundcolor="#F0F0F0" xmlns="http://www.w3.org/2000/svg" xmlns:xlink="http://www.w3.org/1999/xlink" viewBox="0 0 158.96 124.61"><defs><style>.cls-1{fill:#f4f4f4;}.cls-2{fill:#fff;}.cls-3{fill:#ff1612;}.cls-3,.cls-4{fill-rule:evenodd;}.cls-5{clip-path:url(#clippath);}.cls-6{fill:#173cff;}.cls-7{fill:none;}.cls-4{fill:#0437a0;}</style><clipPath id="clippath"><path class="cls-7" d="m131.59,62.3c0,28.78-23.33,52.11-52.11,52.11s-52.11-23.33-52.11-52.11S50.7,10.19,79.48,10.19s52.11,23.33,52.11,52.11Z"/></clipPath></defs><g class="cls-5"><path class="cls-4" d="m20.65,10.19h45.91v30.61L20.65,10.19h0Zm71.74,0h45.91l-45.91,30.61V10.19h0Zm65.25,12.89v22h-33l33-22h0Zm0,56.43v22l-33-22h33Zm-19.34,34.89h-45.91v-30.61l45.91,30.61h0Zm-71.74,0H20.65l45.91-30.61v30.61h0ZM1.32,101.52v-22h33L1.32,101.52h0Zm0-56.44v-22l33,22H1.32Z"/><polygon class="cls-1" points="157.64 101.52 124.64 79.52 157.64 79.52 157.64 45.09 124.64 45.09 157.64 23.09 157.64 10.19 138.31 10.19 92.39 40.8 92.39 10.19 79.48 10.19 66.57 10.19 66.57 40.8 20.65 10.19 1.32 10.19 1.32 23.09 34.32 45.09 1.32 45.09 1.32 79.52 34.32 79.52 1.32 101.52 1.32 114.41 20.65 114.41 66.57 83.8 66.57 114.41 79.48 114.41 92.39 114.41 92.39 83.8 138.31 114.41 157.64 114.41 157.64 101.52 157.64 101.52"/><path class="cls-3" d="m87.54,10.19v41.36h70.1v21.5h-70.1v41.36h-16.12v-41.36H1.32v-21.5h70.1V10.19h16.12Zm70.1,99.38l-45.09-30.06h-14.5l52.34,34.89h7.25v-4.84h0Zm-45.09-64.49l45.09-30.06v-4.84h-7.25l-52.34,34.89h14.5Zm-51.65,0L8.57,10.19H1.32v4.84l45.09,30.06h14.5Zm-14.5,34.43L1.32,109.58v4.84h7.25l52.34-34.89h-14.5Z"/></g><rect class="cls-6" x="45.77" y="74.33" width="67.43" height="28.09" rx="14.04" ry="14.04"/><path class="cls-2" d="m68.63,85.23v-2.12h3.7v9.75h-2.38v-7.62h-1.32Z"/><path class="cls-2" d="m74.77,84.23c.59-.88,1.55-1.32,2.86-1.32s2.27.44,2.86,1.32c.59.88.89,2.09.89,3.62s-.3,2.76-.89,3.65c-.59.88-1.55,1.32-2.86,1.32s-2.27-.44-2.86-1.32-.89-2.1-.89-3.65.3-2.74.89-3.62Zm4.08,1.54c-.2-.48-.6-.73-1.21-.73s-1.02.24-1.21.73c-.2.49-.29,1.18-.29,2.08,0,.61.04,1.11.11,1.5.07.4.22.72.43.96.22.25.54.37.97.37s.75-.12.97-.37c.22-.24.36-.56.43-.96.07-.4.11-.9.11-1.5,0-.9-.1-1.59-.29-2.08Z"/><path class="cls-2" d="m83.48,84.23c.59-.88,1.55-1.32,2.86-1.32s2.27.44,2.86,1.32c.59.88.89,2.09.89,3.62s-.3,2.76-.89,3.65c-.59.88-1.55,1.32-2.86,1.32s-2.27-.44-2.86-1.32-.89-2.1-.89-3.65.3-2.74.89-3.62Zm4.08,1.54c-.2-.48-.6-.73-1.21-.73s-1.02.24-1.21.73c-.2.49-.29,1.18-.29,2.08,0,.61.04,1.11.11,1.5.07.4.22.72.43.96.22.25.54.37.97.37s.75-.12.97-.37c.22-.24.36-.56.43-.96.07-.4.11-.9.11-1.5,0-.9-.1-1.59-.29-2.08Z"/></svg>