<?xml version="1.0" encoding="UTF-8"?><svg id="Page_1" data-backgroundcolor="#F0F0F0" xmlns="http://www.w3.org/2000/svg" xmlns:xlink="http://www.w3.org/1999/xlink" viewBox="0 0 158.96 124.61"><defs><style>.cls-1{fill:#fff;}.cls-2{fill:#ff1612;}.cls-2,.cls-3,.cls-4{fill-rule:evenodd;}.cls-5{clip-path:url(#clippath);}.cls-6{fill:#173cff;}.cls-3{fill:#f4f4f4;}.cls-7{fill:none;}.cls-4{fill:#0437a0;}</style><clipPath id="clippath"><path class="cls-7" d="m131.59,62.3c0,28.78-23.33,52.11-52.11,52.11s-52.11-23.33-52.11-52.11S50.7,10.19,79.48,10.19s52.11,23.33,52.11,52.11Z"/></clipPath></defs><g class="cls-5"><path class="cls-3" d="m157.31,18.21v8.02h-77.12v-8.02h77.12Zm0,16.03v8.02h-77.12v-8.02h77.12Zm0,16.03v8.02h-77.12v-8.02h77.12Zm0,16.03v8.02H.98v-8.02h156.33Zm0,16.04v8.02H.98v-8.02h156.33Zm0,16.03v8.02H.98v-8.02h156.33Z"/><path class="cls-2" d="m.98,10.19h156.33v8.02H.98v-8.02h0Zm0,96.2h156.33v8.02H.98v-8.02h0Zm0-16.03h156.33v8.02H.98v-8.02h0Zm0-16.03h156.33v8.01H.98v-8.01h0Zm0-16.04h156.33v8.02H.98v-8.02h0Zm0-16.03h156.33v8.02H.98v-8.02h0Zm0-16.03h156.33v8.02H.98v-8.02h0Z"/><polygon class="cls-4" points=".98 10.19 80.19 10.19 80.19 66.31 .98 66.31 .98 10.19 .98 10.19"/><path class="cls-3" d="m73.59,12.97l.72,2.22h2.34s-1.89,1.36-1.89,1.36l.73,2.22-1.89-1.38-1.89,1.38.73-2.22-1.89-1.37h2.34s.72-2.22.72-2.22h0ZM7.58,35.35l.72,2.22h2.33s-1.89,1.36-1.89,1.36l.73,2.22-1.89-1.38-1.89,1.38.73-2.22-1.89-1.37h2.33s.72-2.22.72-2.22h0Zm6.6,5.6l.72,2.22h2.33s-1.89,1.36-1.89,1.36l.73,2.22-1.89-1.38-1.89,1.38.73-2.22-1.89-1.37h2.33s.72-2.22.72-2.22h0Zm52.81,0l.72,2.22h2.33s-1.89,1.36-1.89,1.36l.73,2.22-1.89-1.38-1.89,1.38.73-2.22-1.89-1.37h2.33s.72-2.22.72-2.22h0Zm-13.2,0l.72,2.22h2.34s-1.89,1.36-1.89,1.36l.73,2.22-1.89-1.38-1.89,1.38.73-2.22-1.89-1.37h2.33s.72-2.22.72-2.22h0Zm-13.2,0l.72,2.22h2.33s-1.89,1.36-1.89,1.36l.73,2.22-1.89-1.38-1.89,1.38.73-2.22-1.89-1.37h2.34s.72-2.22.72-2.22h0Zm-13.2,0l.72,2.22h2.34s-1.89,1.36-1.89,1.36l.73,2.22-1.89-1.38-1.89,1.38.73-2.22-1.89-1.37h2.34s.72-2.22.72-2.22h0Zm-6.6-5.6l.72,2.22h2.34s-1.89,1.36-1.89,1.36l.72,2.22-1.89-1.38-1.89,1.38.73-2.22-1.89-1.37h2.33s.72-2.22.72-2.22h0Zm39.61,0l.72,2.22h2.33s-1.89,1.36-1.89,1.36l.73,2.22-1.89-1.38-1.89,1.38.73-2.22-1.89-1.37h2.34s.72-2.22.72-2.22h0Zm13.2,0l.72,2.22h2.34s-1.89,1.36-1.89,1.36l.73,2.22-1.89-1.38-1.89,1.38.73-2.22-1.89-1.37h2.34s.72-2.22.72-2.22h0Zm0,11.19l.72,2.22h2.34s-1.89,1.36-1.89,1.36l.73,2.22-1.89-1.38-1.89,1.38.73-2.22-1.89-1.37h2.34s.72-2.22.72-2.22h0Zm-13.2,0l.72,2.22h2.33s-1.89,1.36-1.89,1.36l.73,2.22-1.89-1.38-1.89,1.38.73-2.22-1.89-1.37h2.34s.72-2.22.72-2.22h0Zm-39.61,0l.72,2.22h2.34s-1.89,1.36-1.89,1.36l.72,2.22-1.89-1.38-1.89,1.38.73-2.22-1.89-1.37h2.33s.72-2.22.72-2.22h0Zm-6.6,5.59l.72,2.22h2.33s-1.89,1.36-1.89,1.36l.73,2.22-1.89-1.38-1.89,1.38.73-2.22-1.89-1.37h2.33s.72-2.22.72-2.22h0Zm52.81,0l.72,2.22h2.33s-1.89,1.36-1.89,1.36l.73,2.22-1.89-1.38-1.89,1.38.73-2.22-1.89-1.37h2.33s.72-2.22.72-2.22h0Zm-13.2,0l.72,2.22h2.34s-1.89,1.36-1.89,1.36l.73,2.22-1.89-1.38-1.89,1.38.73-2.22-1.89-1.37h2.33s.72-2.22.72-2.22h0Zm-13.2,0l.72,2.22h2.33s-1.89,1.36-1.89,1.36l.73,2.22-1.89-1.38-1.89,1.38.73-2.22-1.89-1.37h2.34s.72-2.22.72-2.22h0Zm-13.2,0l.72,2.22h2.34s-1.89,1.36-1.89,1.36l.73,2.22-1.89-1.38-1.89,1.38.73-2.22-1.89-1.37h2.34s.72-2.22.72-2.22h0Zm-19.8-5.59l.72,2.22h2.33s-1.89,1.36-1.89,1.36l.73,2.22-1.89-1.38-1.89,1.38.73-2.22-1.89-1.37h2.33s.72-2.22.72-2.22h0Zm0,11.19l.72,2.22h2.33s-1.89,1.36-1.89,1.36l.73,2.22-1.89-1.38-1.89,1.38.73-2.22-1.89-1.37h2.33s.72-2.22.72-2.22h0Zm13.2,0l.72,2.22h2.34s-1.89,1.36-1.89,1.36l.72,2.22-1.89-1.38-1.89,1.38.73-2.22-1.89-1.37h2.33s.72-2.22.72-2.22h0Zm39.61,0l.72,2.22h2.33s-1.89,1.36-1.89,1.36l.73,2.22-1.89-1.38-1.89,1.38.73-2.22-1.89-1.37h2.34s.72-2.22.72-2.22h0Zm13.2,0l.72,2.22h2.34s-1.89,1.36-1.89,1.36l.73,2.22-1.89-1.38-1.89,1.38.73-2.22-1.89-1.37h2.34s.72-2.22.72-2.22h0ZM14.18,29.76l.72,2.22h2.33s-1.89,1.36-1.89,1.36l.73,2.22-1.89-1.38-1.89,1.38.73-2.22-1.89-1.37h2.33s.72-2.22.72-2.22h0Zm0-11.19l.72,2.22h2.33s-1.89,1.36-1.89,1.36l.73,2.22-1.89-1.38-1.89,1.38.73-2.22-1.89-1.37h2.33s.72-2.22.72-2.22h0Zm52.81,0l.72,2.22h2.33s-1.89,1.36-1.89,1.36l.73,2.22-1.89-1.38-1.89,1.38.73-2.22-1.89-1.37h2.33s.72-2.22.72-2.22h0Zm-13.2,0l.72,2.22h2.34s-1.89,1.36-1.89,1.36l.73,2.22-1.89-1.38-1.89,1.38.73-2.22-1.89-1.37h2.33s.72-2.22.72-2.22h0Zm-13.2,0l.72,2.22h2.33s-1.89,1.36-1.89,1.36l.73,2.22-1.89-1.38-1.89,1.38.73-2.22-1.89-1.37h2.34s.72-2.22.72-2.22h0Zm-13.2,0l.72,2.22h2.34s-1.89,1.36-1.89,1.36l.73,2.22-1.89-1.38-1.89,1.38.73-2.22-1.89-1.37h2.34s.72-2.22.72-2.22h0Zm-19.8,5.6l.72,2.22h2.33s-1.89,1.36-1.89,1.36l.73,2.22-1.89-1.38-1.89,1.38.73-2.22-1.89-1.37h2.33s.72-2.22.72-2.22h0Zm59.41,5.59l.72,2.22h2.33s-1.89,1.36-1.89,1.36l.73,2.22-1.89-1.38-1.89,1.38.73-2.22-1.89-1.37h2.33s.72-2.22.72-2.22h0Zm-13.2,0l.72,2.22h2.34s-1.89,1.36-1.89,1.36l.73,2.22-1.89-1.38-1.89,1.38.73-2.22-1.89-1.37h2.33s.72-2.22.72-2.22h0Zm-13.2,0l.72,2.22h2.33s-1.89,1.36-1.89,1.36l.73,2.22-1.89-1.38-1.89,1.38.73-2.22-1.89-1.37h2.34s.72-2.22.72-2.22h0Zm-13.2,0l.72,2.22h2.34s-1.89,1.36-1.89,1.36l.73,2.22-1.89-1.38-1.89,1.38.73-2.22-1.89-1.37h2.34s.72-2.22.72-2.22h0Zm-6.6-5.59l.72,2.22h2.34s-1.89,1.36-1.89,1.36l.72,2.22-1.89-1.38-1.89,1.38.73-2.22-1.89-1.37h2.33s.72-2.22.72-2.22h0Zm0-11.19l.72,2.22h2.34s-1.89,1.36-1.89,1.36l.72,2.22-1.89-1.38-1.89,1.38.73-2.22-1.89-1.37h2.33s.72-2.22.72-2.22h0Zm-13.2,0l.72,2.22h2.33s-1.89,1.36-1.89,1.36l.73,2.22-1.89-1.38-1.89,1.38.73-2.22-1.89-1.37h2.33s.72-2.22.72-2.22h0Zm26.4,44.75l.72,2.22h2.33s-1.89,1.36-1.89,1.36l.73,2.22-1.89-1.38-1.89,1.38.73-2.22-1.89-1.37h2.34s.72-2.22.72-2.22h0Zm0-11.19l.72,2.22h2.33s-1.89,1.36-1.89,1.36l.73,2.22-1.89-1.38-1.89,1.38.73-2.22-1.89-1.37h2.34s.72-2.22.72-2.22h0Zm0-11.19l.72,2.22h2.33s-1.89,1.36-1.89,1.36l.73,2.22-1.89-1.38-1.89,1.38.73-2.22-1.89-1.37h2.34s.72-2.22.72-2.22h0Zm0-11.19l.72,2.22h2.33s-1.89,1.36-1.89,1.36l.73,2.22-1.89-1.38-1.89,1.38.73-2.22-1.89-1.37h2.34s.72-2.22.72-2.22h0Zm0-11.19l.72,2.22h2.33s-1.89,1.36-1.89,1.36l.73,2.22-1.89-1.38-1.89,1.38.73-2.22-1.89-1.37h2.34s.72-2.22.72-2.22h0Zm13.2,44.75l.72,2.22h2.34s-1.89,1.36-1.89,1.36l.73,2.22-1.89-1.38-1.89,1.38.73-2.22-1.89-1.37h2.34s.72-2.22.72-2.22h0Zm0-11.19l.72,2.22h2.34s-1.89,1.36-1.89,1.36l.73,2.22-1.89-1.38-1.89,1.38.73-2.22-1.89-1.37h2.34s.72-2.22.72-2.22h0Zm0-11.19l.72,2.22h2.34s-1.89,1.36-1.89,1.36l.73,2.22-1.89-1.38-1.89,1.38.73-2.22-1.89-1.37h2.34s.72-2.22.72-2.22h0Zm0-11.19l.72,2.22h2.34s-1.89,1.36-1.89,1.36l.73,2.22-1.89-1.38-1.89,1.38.73-2.22-1.89-1.37h2.34s.72-2.22.72-2.22h0Zm0-11.19l.72,2.22h2.34s-1.89,1.36-1.89,1.36l.73,2.22-1.89-1.38-1.89,1.38.73-2.22-1.89-1.37h2.34s.72-2.22.72-2.22h0Zm13.2,11.19l.72,2.22h2.33s-1.89,1.36-1.89,1.36l.73,2.22-1.89-1.38-1.89,1.38.73-2.22-1.89-1.37h2.34s.72-2.22.72-2.22h0Zm0-11.19l.72,2.22h2.33s-1.89,1.36-1.89,1.36l.73,2.22-1.89-1.38-1.89,1.38.73-2.22-1.89-1.37h2.34s.72-2.22.72-2.22h0Zm13.2,11.19l.72,2.22h2.34s-1.89,1.36-1.89,1.36l.73,2.22-1.89-1.38-1.89,1.38.73-2.22-1.89-1.37h2.34s.72-2.22.72-2.22h0Z"/></g><rect class="cls-6" x="45.77" y="74.33" width="67.43" height="28.09" rx="14.04" ry="14.04"/><path class="cls-1" d="m68.63,85.23v-2.12h3.7v9.75h-2.38v-7.62h-1.32Z"/><path class="cls-1" d="m74.77,84.23c.59-.88,1.55-1.32,2.86-1.32s2.27.44,2.86,1.32c.59.88.89,2.09.89,3.62s-.3,2.76-.89,3.65c-.59.88-1.55,1.32-2.86,1.32s-2.27-.44-2.86-1.32-.89-2.1-.89-3.65.3-2.74.89-3.62Zm4.08,1.54c-.2-.48-.6-.73-1.21-.73s-1.02.24-1.21.73c-.2.49-.29,1.18-.29,2.08,0,.61.04,1.11.11,1.5.07.4.22.72.43.96.22.25.54.37.97.37s.75-.12.97-.37c.22-.24.36-.56.43-.96.07-.4.11-.9.11-1.5,0-.9-.1-1.59-.29-2.08Z"/><path class="cls-1" d="m83.48,84.23c.59-.88,1.55-1.32,2.86-1.32s2.27.44,2.86,1.32c.59.88.89,2.09.89,3.62s-.3,2.76-.89,3.65c-.59.88-1.55,1.32-2.86,1.32s-2.27-.44-2.86-1.32-.89-2.1-.89-3.65.3-2.74.89-3.62Zm4.08,1.54c-.2-.48-.6-.73-1.21-.73s-1.02.24-1.21.73c-.2.49-.29,1.18-.29,2.08,0,.61.04,1.11.11,1.5.07.4.22.72.43.96.22.25.54.37.97.37s.75-.12.97-.37c.22-.24.36-.56.43-.96.07-.4.11-.9.11-1.5,0-.9-.1-1.59-.29-2.08Z"/></svg>