<?xml version="1.0" encoding="UTF-8"?><svg id="Page_1" data-backgroundcolor="#F0F0F0" xmlns="http://www.w3.org/2000/svg" xmlns:xlink="http://www.w3.org/1999/xlink" viewBox="0 0 158.96 124.61"><defs><style>.cls-1{fill:#fff;}.cls-2{fill:#ff1612;}.cls-2,.cls-3,.cls-4{fill-rule:evenodd;}.cls-5{clip-path:url(#clippath);}.cls-6{fill:#173cff;}.cls-3{fill:#f4f4f4;}.cls-7{fill:none;}.cls-4{fill:#0437a0;}</style><clipPath id="clippath"><path class="cls-7" d="m131.59,62.3c0,28.78-23.33,52.11-52.11,52.11s-52.11-23.33-52.11-52.11S50.7,10.19,79.48,10.19s52.11,23.33,52.11,52.11Z"/></clipPath></defs><g class="cls-5"><path class="cls-3" d="m157.64,18.21v8.02h-77.12v-8.02h77.12Zm0,16.03v8.02h-77.12v-8.02h77.12Zm0,16.03v8.02h-77.12v-8.02h77.12Zm0,16.03v8.02H1.32v-8.02h156.33Zm0,16.04v8.02H1.32v-8.02h156.33Zm0,16.03v8.02H1.32v-8.02h156.33Z"/><path class="cls-2" d="m1.32,10.19h156.33v8.02H1.32v-8.02h0Zm0,96.2h156.33v8.02H1.32v-8.02h0Zm0-16.03h156.33v8.02H1.32v-8.02h0Zm0-16.03h156.33v8.01H1.32v-8.01h0Zm0-16.04h156.33v8.02H1.32v-8.02h0Zm0-16.03h156.33v8.02H1.32v-8.02h0Zm0-16.03h156.33v8.02H1.32v-8.02h0Z"/><polygon class="cls-4" points="1.32 10.19 80.52 10.19 80.52 66.31 1.32 66.31 1.32 10.19 1.32 10.19"/><path class="cls-3" d="m73.92,12.97l.72,2.22h2.34s-1.89,1.36-1.89,1.36l.73,2.22-1.89-1.38-1.89,1.38.73-2.22-1.89-1.37h2.34s.72-2.22.72-2.22h0ZM7.91,35.35l.72,2.22h2.33s-1.89,1.36-1.89,1.36l.73,2.22-1.89-1.38-1.89,1.38.73-2.22-1.89-1.37h2.33s.72-2.22.72-2.22h0Zm6.6,5.6l.72,2.22h2.33s-1.89,1.36-1.89,1.36l.73,2.22-1.89-1.38-1.89,1.38.73-2.22-1.89-1.37h2.33s.72-2.22.72-2.22h0Zm52.81,0l.72,2.22h2.33s-1.89,1.36-1.89,1.36l.73,2.22-1.89-1.38-1.89,1.38.73-2.22-1.89-1.37h2.33s.72-2.22.72-2.22h0Zm-13.2,0l.72,2.22h2.34s-1.89,1.36-1.89,1.36l.73,2.22-1.89-1.38-1.89,1.38.73-2.22-1.89-1.37h2.33s.72-2.22.72-2.22h0Zm-13.2,0l.72,2.22h2.33s-1.89,1.36-1.89,1.36l.73,2.22-1.89-1.38-1.89,1.38.73-2.22-1.89-1.37h2.34s.72-2.22.72-2.22h0Zm-13.2,0l.72,2.22h2.34s-1.89,1.36-1.89,1.36l.73,2.22-1.89-1.38-1.89,1.38.73-2.22-1.89-1.37h2.34s.72-2.22.72-2.22h0Zm-6.6-5.6l.72,2.22h2.34s-1.89,1.36-1.89,1.36l.72,2.22-1.89-1.38-1.89,1.38.73-2.22-1.89-1.37h2.33s.72-2.22.72-2.22h0Zm39.61,0l.72,2.22h2.33s-1.89,1.36-1.89,1.36l.73,2.22-1.89-1.38-1.89,1.38.73-2.22-1.89-1.37h2.34s.72-2.22.72-2.22h0Zm13.2,0l.72,2.22h2.34s-1.89,1.36-1.89,1.36l.73,2.22-1.89-1.38-1.89,1.38.73-2.22-1.89-1.37h2.34s.72-2.22.72-2.22h0Zm0,11.19l.72,2.22h2.34s-1.89,1.36-1.89,1.36l.73,2.22-1.89-1.38-1.89,1.38.73-2.22-1.89-1.37h2.34s.72-2.22.72-2.22h0Zm-13.2,0l.72,2.22h2.33s-1.89,1.36-1.89,1.36l.73,2.22-1.89-1.38-1.89,1.38.73-2.22-1.89-1.37h2.34s.72-2.22.72-2.22h0Zm-39.61,0l.72,2.22h2.34s-1.89,1.36-1.89,1.36l.72,2.22-1.89-1.38-1.89,1.38.73-2.22-1.89-1.37h2.33s.72-2.22.72-2.22h0Zm-6.6,5.59l.72,2.22h2.33s-1.89,1.36-1.89,1.36l.73,2.22-1.89-1.38-1.89,1.38.73-2.22-1.89-1.37h2.33s.72-2.22.72-2.22h0Zm52.81,0l.72,2.22h2.33s-1.89,1.36-1.89,1.36l.73,2.22-1.89-1.38-1.89,1.38.73-2.22-1.89-1.37h2.33s.72-2.22.72-2.22h0Zm-13.2,0l.72,2.22h2.34s-1.89,1.36-1.89,1.36l.73,2.22-1.89-1.38-1.89,1.38.73-2.22-1.89-1.37h2.33s.72-2.22.72-2.22h0Zm-13.2,0l.72,2.22h2.33s-1.89,1.36-1.89,1.36l.73,2.22-1.89-1.38-1.89,1.38.73-2.22-1.89-1.37h2.34s.72-2.22.72-2.22h0Zm-13.2,0l.72,2.22h2.34s-1.89,1.36-1.89,1.36l.73,2.22-1.89-1.38-1.89,1.38.73-2.22-1.89-1.37h2.34s.72-2.22.72-2.22h0Zm-19.8-5.59l.72,2.22h2.33s-1.89,1.36-1.89,1.36l.73,2.22-1.89-1.38-1.89,1.38.73-2.22-1.89-1.37h2.33s.72-2.22.72-2.22h0Zm0,11.19l.72,2.22h2.33s-1.89,1.36-1.89,1.36l.73,2.22-1.89-1.38-1.89,1.38.73-2.22-1.89-1.37h2.33s.72-2.22.72-2.22h0Zm13.2,0l.72,2.22h2.34s-1.89,1.36-1.89,1.36l.72,2.22-1.89-1.38-1.89,1.38.73-2.22-1.89-1.37h2.33s.72-2.22.72-2.22h0Zm39.61,0l.72,2.22h2.33s-1.89,1.36-1.89,1.36l.73,2.22-1.89-1.38-1.89,1.38.73-2.22-1.89-1.37h2.34s.72-2.22.72-2.22h0Zm13.2,0l.72,2.22h2.34s-1.89,1.36-1.89,1.36l.73,2.22-1.89-1.38-1.89,1.38.73-2.22-1.89-1.37h2.34s.72-2.22.72-2.22h0ZM14.52,29.76l.72,2.22h2.33s-1.89,1.36-1.89,1.36l.73,2.22-1.89-1.38-1.89,1.38.73-2.22-1.89-1.37h2.33s.72-2.22.72-2.22h0Zm0-11.19l.72,2.22h2.33s-1.89,1.36-1.89,1.36l.73,2.22-1.89-1.38-1.89,1.38.73-2.22-1.89-1.37h2.33s.72-2.22.72-2.22h0Zm52.81,0l.72,2.22h2.33s-1.89,1.36-1.89,1.36l.73,2.22-1.89-1.38-1.89,1.38.73-2.22-1.89-1.37h2.33s.72-2.22.72-2.22h0Zm-13.2,0l.72,2.22h2.34s-1.89,1.36-1.89,1.36l.73,2.22-1.89-1.38-1.89,1.38.73-2.22-1.89-1.37h2.33s.72-2.22.72-2.22h0Zm-13.2,0l.72,2.22h2.33s-1.89,1.36-1.89,1.36l.73,2.22-1.89-1.38-1.89,1.38.73-2.22-1.89-1.37h2.34s.72-2.22.72-2.22h0Zm-13.2,0l.72,2.22h2.34s-1.89,1.36-1.89,1.36l.73,2.22-1.89-1.38-1.89,1.38.73-2.22-1.89-1.37h2.34s.72-2.22.72-2.22h0Zm-19.8,5.6l.72,2.22h2.33s-1.89,1.36-1.89,1.36l.73,2.22-1.89-1.38-1.89,1.38.73-2.22-1.89-1.37h2.33s.72-2.22.72-2.22h0Zm59.41,5.59l.72,2.22h2.33s-1.89,1.36-1.89,1.36l.73,2.22-1.89-1.38-1.89,1.38.73-2.22-1.89-1.37h2.33s.72-2.22.72-2.22h0Zm-13.2,0l.72,2.22h2.34s-1.89,1.36-1.89,1.36l.73,2.22-1.89-1.38-1.89,1.38.73-2.22-1.89-1.37h2.33s.72-2.22.72-2.22h0Zm-13.2,0l.72,2.22h2.33s-1.89,1.36-1.89,1.36l.73,2.22-1.89-1.38-1.89,1.38.73-2.22-1.89-1.37h2.34s.72-2.22.72-2.22h0Zm-13.2,0l.72,2.22h2.34s-1.89,1.36-1.89,1.36l.73,2.22-1.89-1.38-1.89,1.38.73-2.22-1.89-1.37h2.34s.72-2.22.72-2.22h0Zm-6.6-5.59l.72,2.22h2.34s-1.89,1.36-1.89,1.36l.72,2.22-1.89-1.38-1.89,1.38.73-2.22-1.89-1.37h2.33s.72-2.22.72-2.22h0Zm0-11.19l.72,2.22h2.34s-1.89,1.36-1.89,1.36l.72,2.22-1.89-1.38-1.89,1.38.73-2.22-1.89-1.37h2.33s.72-2.22.72-2.22h0Zm-13.2,0l.72,2.22h2.33s-1.89,1.36-1.89,1.36l.73,2.22-1.89-1.38-1.89,1.38.73-2.22-1.89-1.37h2.33s.72-2.22.72-2.22h0Zm26.4,44.75l.72,2.22h2.33s-1.89,1.36-1.89,1.36l.73,2.22-1.89-1.38-1.89,1.38.73-2.22-1.89-1.37h2.34s.72-2.22.72-2.22h0Zm0-11.19l.72,2.22h2.33s-1.89,1.36-1.89,1.36l.73,2.22-1.89-1.38-1.89,1.38.73-2.22-1.89-1.37h2.34s.72-2.22.72-2.22h0Zm0-11.19l.72,2.22h2.33s-1.89,1.36-1.89,1.36l.73,2.22-1.89-1.38-1.89,1.38.73-2.22-1.89-1.37h2.34s.72-2.22.72-2.22h0Zm0-11.19l.72,2.22h2.33s-1.89,1.36-1.89,1.36l.73,2.22-1.89-1.38-1.89,1.38.73-2.22-1.89-1.37h2.34s.72-2.22.72-2.22h0Zm0-11.19l.72,2.22h2.33s-1.89,1.36-1.89,1.36l.73,2.22-1.89-1.38-1.89,1.38.73-2.22-1.89-1.37h2.34s.72-2.22.72-2.22h0Zm13.2,44.75l.72,2.22h2.34s-1.89,1.36-1.89,1.36l.73,2.22-1.89-1.38-1.89,1.38.73-2.22-1.89-1.37h2.34s.72-2.22.72-2.22h0Zm0-11.19l.72,2.22h2.34s-1.89,1.36-1.89,1.36l.73,2.22-1.89-1.38-1.89,1.38.73-2.22-1.89-1.37h2.34s.72-2.22.72-2.22h0Zm0-11.19l.72,2.22h2.34s-1.89,1.36-1.89,1.36l.73,2.22-1.89-1.38-1.89,1.38.73-2.22-1.89-1.37h2.34s.72-2.22.72-2.22h0Zm0-11.19l.72,2.22h2.34s-1.89,1.36-1.89,1.36l.73,2.22-1.89-1.38-1.89,1.38.73-2.22-1.89-1.37h2.34s.72-2.22.72-2.22h0Zm0-11.19l.72,2.22h2.34s-1.89,1.36-1.89,1.36l.73,2.22-1.89-1.38-1.89,1.38.73-2.22-1.89-1.37h2.34s.72-2.22.72-2.22h0Zm13.2,11.19l.72,2.22h2.33s-1.89,1.36-1.89,1.36l.73,2.22-1.89-1.38-1.89,1.38.73-2.22-1.89-1.37h2.34s.72-2.22.72-2.22h0Zm0-11.19l.72,2.22h2.33s-1.89,1.36-1.89,1.36l.73,2.22-1.89-1.38-1.89,1.38.73-2.22-1.89-1.37h2.34s.72-2.22.72-2.22h0Zm13.2,11.19l.72,2.22h2.34s-1.89,1.36-1.89,1.36l.73,2.22-1.89-1.38-1.89,1.38.73-2.22-1.89-1.37h2.34s.72-2.22.72-2.22h0Z"/></g><rect class="cls-6" x="45.77" y="74.33" width="67.43" height="28.09" rx="14.04" ry="14.04"/><path class="cls-1" d="m69.31,84.07c.74.39,1.31.94,1.72,1.65.4.71.61,1.52.61,2.45s-.2,1.73-.61,2.44c-.41.71-.98,1.26-1.72,1.66s-1.6.59-2.58.59h-3.51v-9.37h3.51c.99,0,1.85.2,2.59.59Zm-.72,6.1c.48-.47.72-1.14.72-2s-.24-1.54-.72-2.02c-.48-.48-1.15-.72-2.02-.72h-1.08v5.45h1.08c.86,0,1.54-.24,2.02-.71Z"/><path class="cls-1" d="m78.79,83.48v6.38c0,.99-.28,1.75-.83,2.28-.56.53-1.31.8-2.25.8s-1.78-.28-2.38-.84c-.6-.56-.89-1.36-.89-2.39h2.27c0,.39.08.69.24.89.16.2.39.3.69.3.28,0,.49-.09.64-.27.15-.18.23-.44.23-.77v-6.38h2.28Z"/><path class="cls-1" d="m81.42,83.66c.59-.52,1.38-.77,2.39-.77.67,0,1.24.12,1.71.35.48.23.84.55,1.08.95.24.4.37.85.37,1.35,0,.59-.15,1.07-.44,1.44-.29.37-.64.62-1.03.75v.05c.51.17.91.45,1.2.84.29.39.44.89.44,1.51,0,.55-.13,1.04-.38,1.46s-.62.75-1.11.99-1.06.36-1.73.36c-1.07,0-1.92-.26-2.56-.79-.64-.53-.97-1.32-1.01-2.38h2.22c0,.39.12.7.33.93.21.23.52.34.93.34.35,0,.62-.1.81-.3s.29-.46.29-.79c0-.43-.14-.74-.41-.93s-.71-.29-1.3-.29h-.43v-1.86h.43c.45,0,.82-.08,1.1-.23.28-.16.42-.43.42-.83,0-.32-.09-.57-.27-.75-.18-.18-.42-.27-.73-.27-.34,0-.59.1-.75.31-.16.21-.26.46-.29.76h-2.23c.04-.95.35-1.69.93-2.2Z"/><path class="cls-1" d="m89.37,84.23c.59-.88,1.55-1.32,2.86-1.32s2.27.44,2.86,1.32c.59.88.89,2.09.89,3.62s-.3,2.76-.89,3.65c-.59.88-1.55,1.32-2.86,1.32s-2.27-.44-2.86-1.32-.89-2.1-.89-3.65.3-2.74.89-3.62Zm4.08,1.54c-.2-.48-.6-.73-1.21-.73s-1.02.24-1.21.73c-.2.49-.29,1.18-.29,2.08,0,.61.04,1.11.11,1.5.07.4.22.72.43.96.22.25.54.37.97.37s.75-.12.97-.37c.22-.24.36-.56.43-.96.07-.4.11-.9.11-1.5,0-.9-.1-1.59-.29-2.08Z"/></svg>